P3
38 36
255
251 255 255 252 255 255 252 254 253 254 247 241 255 251 239 255 248 241 255 252 255 254 255 255 249 255 253 249 255 246 252 255 241 255 255 237 255 255 237 255 253 241 255 246 243 255 245 253 255 242 255 255 234 255 255 248 255 253 249 255 249 251 255 251 255 255 254 255 255 250 250 250 250 250 250 255 255 255 250 250 250 255 255 255 249 249 249 255 255 255 249 249 249 249 249 249 255 255 255 255 255 255 255 255 255 251 251 251 252 252 252 255 255 255 
252 255 255 254 254 255 255 255 255 255 251 248 255 253 244 255 251 246 255 253 255 255 254 255 251 255 255 249 255 250 251 255 244 252 255 241 255 255 241 255 255 244 255 251 250 255 249 255 255 244 255 255 239 254 255 250 255 255 253 255 250 255 255 250 255 255 238 239 241 250 250 250 255 255 255 233 233 233 248 248 248 255 255 255 255 255 255 255 255 255 255 255 255 255 255 255 250 250 250 255 255 255 255 255 255 241 241 241 255 255 255 242 242 242 
255 253 255 255 253 255 254 252 255 252 255 255 245 255 255 245 255 255 249 252 255 252 250 255 251 252 255 249 253 252 244 255 248 242 255 247 244 255 247 246 255 250 251 255 255 251 255 255 250 255 255 251 255 255 253 254 255 254 255 255 247 255 249 248 255 250 254 255 253 252 252 252 236 236 236 20 20 20 4 4 4 0 0 0 0 0 0 0 0 0 0 0 0 12 12 12 0 0 0 0 0 0 0 0 0 4 4 4 237 237 237 255 255 255 
255 248 251 254 247 254 249 243 253 247 255 255 213 255 255 218 255 255 233 255 255 241 255 255 245 255 255 241 255 255 230 255 255 226 255 255 228 255 255 230 255 255 221 255 255 226 255 255 224 255 255 231 255 255 239 253 253 249 254 248 251 255 244 251 255 244 254 255 251 255 255 255 255 255 255 0 0 0 0 0 0 0 0 0 0 0 0 0 0 0 0 0 0 7 7 7 3 3 3 10 10 10 5 5 5 0 0 0 255 255 255 255 255 255 
255 245 245 255 251 255 255 251 255 238 255 255 197 255 255 189 255 255 200 255 255 211 255 255 221 255 255 217 255 255 198 255 255 193 255 255 197 255 255 198 255 255 199 255 255 196 255 255 191 255 255 203 255 255 235 255 255 251 255 255 251 255 241 250 252 239 243 244 239 255 255 255 255 255 255 2 2 2 4 4 4 15 15 15 0 0 0 5 5 5 17 17 17 0 0 0 0 0 0 0 0 0 0 0 0 8 8 8 255 255 255 253 253 253 
255 248 245 255 248 254 245 233 253 205 236 255 69 171 186 38 171 188 47 168 195 58 162 199 73 154 199 69 156 199 47 167 201 40 170 204 48 166 206 51 164 206 51 167 206 43 164 193 42 169 184 85 183 194 213 249 255 252 255 255 255 255 250 255 255 246 255 255 251 255 255 255 248 248 248 0 0 0 0 0 0 0 0 0 0 0 0 4 4 4 0 0 0 0 0 0 15 15 15 12 12 12 0 0 0 2 2 2 255 255 255 255 255 255 
255 244 241 255 247 253 255 248 255 227 255 255 58 183 203 14 184 207 11 185 219 19 180 226 39 169 227 37 170 229 12 182 233 5 185 236 16 179 238 22 176 238 24 179 236 18 174 222 15 175 207 47 169 193 218 255 255 254 252 255 255 249 255 254 244 245 254 250 251 254 254 254 252 252 252 9 9 9 6 6 6 0 0 0 3 3 3 0 0 0 3 3 3 0 0 0 0 0 0 0 0 0 0 0 0 4 4 4 255 255 255 254 254 254 
255 237 234 255 246 253 255 248 255 223 255 255 41 177 199 0 181 205 0 190 226 0 185 235 19 173 237 18 173 240 0 186 246 0 188 249 0 181 251 4 178 251 4 177 245 11 186 243 16 194 232 37 172 204 219 255 255 249 246 255 255 249 255 255 250 255 255 253 254 255 255 255 255 255 255 1 1 1 3 3 3 0 0 0 8 8 8 0 0 0 0 0 0 11 11 11 0 0 0 12 12 12 0 0 0 0 0 0 255 255 255 253 253 253 
255 237 234 255 246 253 255 248 255 223 255 255 41 177 199 0 181 205 0 190 226 0 185 235 19 173 237 18 173 240 0 186 246 0 188 249 0 181 251 4 178 251 4 177 245 11 186 243 16 194 232 37 172 204 219 255 255 249 246 255 255 249 255 255 250 255 255 252 253 255 255 255 255 255 255 0 0 0 9 9 9 0 0 0 2 2 2 0 0 0 0 0 0 0 0 0 0 0 0 2 2 2 4 4 4 0 0 0 255 255 255 255 255 255 
255 244 241 255 247 253 255 248 255 227 255 255 58 183 203 14 184 207 11 185 219 19 180 226 39 169 227 37 170 229 12 182 233 5 185 236 16 179 238 22 176 238 24 179 236 18 174 222 15 175 207 47 169 193 218 255 255 254 252 255 255 249 255 254 244 245 255 254 255 255 255 255 244 244 244 9 9 9 6 6 6 8 8 8 0 0 0 4 4 4 7 7 7 7 7 7 0 0 0 0 0 0 4 4 4 0 0 0 255 255 255 253 253 253 
255 248 245 255 248 254 245 233 253 205 236 255 69 171 186 38 171 188 47 168 195 58 162 199 73 154 199 69 156 199 47 167 201 40 170 204 48 166 206 51 164 206 51 167 206 43 164 193 42 169 184 85 183 194 213 249 255 252 255 255 255 255 250 255 255 246 255 255 251 255 255 255 250 250 250 1 1 1 0 0 0 2 2 2 0 0 0 0 0 0 0 0 0 0 0 0 0 0 0 0 0 0 0 0 0 0 0 0 255 255 255 251 251 251 
255 245 245 255 251 255 255 251 255 238 255 255 197 255 255 189 255 255 200 255 255 211 255 255 221 255 255 217 255 255 198 255 255 193 255 255 197 255 255 198 255 255 199 255 255 196 255 255 191 255 255 203 255 255 235 255 255 251 255 255 251 255 241 250 252 239 243 244 239 252 252 252 255 255 255 0 0 0 0 0 0 0 0 0 10 10 10 2 2 2 0 0 0 1 1 1 9 9 9 5 5 5 5 5 5 0 0 0 255 255 255 255 255 255 
255 248 251 254 247 254 249 243 253 247 255 255 213 255 255 218 255 255 233 255 255 241 255 255 245 255 255 241 255 255 230 255 255 226 255 255 228 255 255 230 255 255 221 255 255 226 255 255 224 255 255 231 255 255 239 253 253 249 254 248 251 255 244 251 255 244 254 255 251 255 255 255 240 240 240 15 15 15 0 0 0 0 0 0 0 0 0 0 0 0 14 14 14 2 2 2 0 0 0 0 0 0 0 0 0 11 11 11 236 236 236 250 250 250 
255 253 255 255 253 255 254 252 255 252 255 255 245 255 255 245 255 255 249 252 255 252 250 255 251 252 255 249 253 252 244 255 248 242 255 247 244 255 247 246 255 250 251 255 255 251 255 255 250 255 255 251 255 255 253 254 255 254 255 255 247 255 249 248 255 250 234 236 233 246 246 246 255 255 255 247 247 247 255 255 255 255 255 255 245 245 245 255 255 255 246 246 246 246 246 246 255 255 255 255 255 255 255 255 255 229 229 229 255 255 255 249 249 249 
252 255 255 254 254 255 255 255 255 255 251 248 255 253 244 255 251 246 255 253 255 255 254 255 251 255 255 249 255 250 251 255 244 252 255 241 255 255 241 255 255 244 255 251 250 255 249 255 255 244 255 255 239 254 255 250 255 255 253 255 250 255 255 250 255 255 254 255 255 255 255 255 234 234 234 255 255 255 246 246 246 255 255 255 246 246 246 255 255 255 255 255 255 251 251 251 251 251 251 251 251 251 255 255 255 253 253 253 255 255 255 247 247 247 
252 255 255 254 254 255 252 253 255 251 247 244 255 252 246 255 249 246 255 253 255 255 254 255 249 255 253 248 255 250 249 255 244 252 255 243 255 255 241 255 255 244 255 247 245 255 246 253 255 244 255 255 235 253 255 247 255 255 247 255 253 249 255 254 254 255 233 237 240 252 255 255 251 251 249 255 255 253 255 255 255 250 251 255 252 255 255 247 252 255 251 255 251 252 255 251 255 255 255 255 254 255 253 252 248 255 255 251 242 243 245 254 255 255 
251 249 254 255 253 255 244 243 249 254 255 255 241 244 249 254 255 255 255 253 255 255 254 255 249 255 255 245 255 253 242 255 251 242 255 251 245 255 250 251 255 251 255 253 253 255 249 255 255 246 255 255 232 248 255 239 255 255 246 255 255 241 255 255 250 255 251 255 255 248 255 255 253 255 249 254 253 249 255 253 255 252 255 255 245 255 255 242 255 255 242 255 244 247 255 243 248 249 253 255 252 255 255 253 242 254 252 240 252 255 255 244 251 255 
255 253 255 255 254 255 252 253 255 251 255 255 242 252 255 247 254 255 255 253 255 255 253 255 252 255 255 248 255 255 244 255 255 242 255 255 244 255 255 248 255 255 248 250 249 248 244 245 255 250 255 255 249 255 255 248 255 255 247 255 250 236 249 255 252 255 247 255 255 248 255 255 255 255 245 255 251 243 255 248 253 253 249 255 243 251 255 234 250 255 241 255 245 247 255 242 253 248 254 255 250 255 255 255 236 255 255 236 252 255 255 248 255 255 
255 255 255 251 252 254 247 251 252 249 254 255 242 252 253 250 255 255 255 249 255 255 247 255 255 249 255 252 251 255 249 253 254 246 255 252 246 255 252 246 255 250 249 255 253 243 252 249 249 255 255 249 255 255 247 255 255 248 255 255 246 255 255 245 255 255 244 255 255 251 255 253 255 255 241 255 252 241 255 249 253 255 248 255 255 249 255 252 252 255 252 255 255 255 255 248 255 246 253 255 249 250 255 250 221 255 247 216 255 255 251 242 246 255 
244 246 243 254 255 253 254 255 253 255 255 253 253 254 249 255 254 255 255 252 255 255 251 255 255 251 255 255 252 255 255 253 255 255 253 253 255 255 251 254 255 251 249 255 251 245 255 249 242 255 253 234 255 248 230 253 245 240 255 255 240 255 255 236 255 253 244 255 255 255 255 246 255 255 220 255 250 201 255 247 197 255 251 209 255 254 226 255 252 218 255 255 204 255 255 197 255 255 204 255 255 198 255 255 179 255 254 192 255 255 237 254 255 255 
236 241 235 255 255 251 251 248 241 255 252 246 253 236 229 255 242 236 255 255 253 252 255 255 255 254 253 255 252 251 255 250 251 255 250 250 255 251 248 255 254 248 240 243 234 244 255 245 242 255 250 240 255 251 237 255 248 239 255 251 244 255 253 246 255 254 250 255 254 255 255 232 255 253 174 253 239 117 247 232 81 250 237 71 245 240 76 239 239 67 233 235 48 239 235 48 241 228 53 250 233 68 243 231 71 241 232 115 255 253 212 250 249 247 
246 249 242 255 255 248 255 244 237 255 246 241 255 242 237 255 243 237 255 250 243 255 252 244 255 247 244 255 244 243 255 240 243 255 239 243 255 241 243 255 245 243 255 251 243 255 255 244 237 247 236 243 255 248 245 255 251 243 254 248 245 251 247 254 255 255 254 255 255 255 255 230 255 253 156 250 236 78 243 228 23 249 237 5 248 242 8 242 239 0 246 245 0 252 247 0 254 239 0 255 242 18 248 237 31 247 239 92 255 255 211 255 254 255 
255 255 248 255 252 246 255 245 239 255 216 212 255 229 228 255 223 221 255 238 228 255 238 230 255 233 230 255 228 230 255 223 230 255 222 232 255 225 234 255 230 236 255 214 213 255 246 241 254 239 232 245 240 234 255 254 251 255 253 253 255 246 253 255 248 255 254 249 255 255 255 241 255 255 164 255 239 82 253 233 22 255 243 6 255 248 12 255 246 7 254 243 0 255 245 0 255 238 0 255 241 6 245 232 14 238 231 78 255 251 209 254 250 255 
255 254 248 255 247 242 255 228 226 164 78 79 180 65 72 177 52 56 169 58 51 170 57 49 181 51 51 191 46 53 198 42 55 197 42 56 187 47 60 170 54 63 161 79 83 255 223 221 255 247 243 255 246 240 255 253 250 255 249 251 255 250 255 255 250 255 250 249 255 255 255 237 255 255 160 255 238 78 251 230 15 255 236 0 255 239 8 254 233 4 255 235 0 255 241 0 255 238 0 255 245 1 249 238 6 242 238 69 255 255 208 255 253 255 
255 250 244 255 246 243 255 233 236 169 59 68 192 45 61 205 41 52 206 40 40 212 39 35 222 33 37 227 30 40 232 27 42 225 30 47 209 37 51 188 46 58 156 55 59 255 237 236 255 248 241 255 254 248 248 255 252 247 255 255 244 253 255 248 255 255 248 255 255 255 255 220 255 255 156 243 230 63 255 239 22 255 237 5 255 234 18 255 236 24 255 237 16 255 235 5 255 239 0 255 237 0 252 247 0 237 239 50 255 255 193 252 255 244 
255 250 246 255 239 238 255 230 236 164 44 56 199 43 64 223 42 59 228 35 40 236 32 33 243 28 35 247 25 38 247 24 42 240 27 45 223 35 52 200 46 58 178 65 71 255 233 234 255 239 236 255 248 244 246 251 247 247 255 255 245 255 255 243 255 255 247 255 255 254 255 220 255 255 159 242 231 64 255 239 23 255 238 5 255 234 18 255 237 26 255 236 18 255 235 7 255 240 0 255 238 0 251 248 0 235 241 47 255 255 191 251 255 246 
255 250 246 255 243 243 255 231 237 161 46 61 189 43 64 206 35 53 222 31 39 232 27 32 238 24 34 239 23 36 238 23 39 231 26 43 217 32 48 197 41 55 162 42 52 255 219 227 255 238 243 255 245 250 255 241 247 255 252 255 255 252 255 253 253 255 248 255 255 254 255 236 255 255 175 242 228 77 255 240 27 255 240 2 254 237 7 255 240 13 255 239 9 255 238 2 255 241 0 253 239 0 249 248 0 234 240 54 255 255 209 249 255 255 
255 250 246 255 239 239 255 223 227 169 76 87 180 63 81 183 48 62 193 48 51 199 47 46 201 45 48 203 44 49 201 44 51 196 47 53 186 51 58 172 57 64 180 91 95 255 227 228 255 242 244 255 247 250 255 247 251 253 251 255 254 254 255 251 255 255 248 255 255 254 255 237 255 255 181 242 227 82 255 239 29 255 241 0 251 240 0 254 243 3 253 242 4 252 240 0 255 242 0 253 239 0 249 248 0 234 240 56 255 255 211 251 254 255 
255 243 239 255 248 244 255 242 243 255 217 223 255 229 237 255 232 235 255 240 229 255 242 227 255 242 227 255 241 227 255 241 229 255 242 229 255 244 231 255 246 235 243 223 212 255 253 243 245 247 236 243 254 246 242 255 253 238 255 255 235 255 255 237 255 255 245 255 251 255 255 225 255 255 175 242 227 82 255 239 29 254 242 0 250 242 0 253 245 0 252 243 0 251 240 0 255 242 0 253 239 0 249 249 0 237 239 50 255 255 202 254 255 255 
255 241 236 255 250 246 255 243 239 255 249 246 255 248 246 255 250 246 255 255 246 255 255 246 254 255 246 254 255 246 252 255 244 252 255 244 252 255 244 252 255 244 252 255 244 251 255 246 239 249 240 244 255 250 241 255 253 236 255 253 234 255 255 237 255 253 247 255 246 255 255 220 255 255 177 243 226 86 255 239 30 254 242 0 250 242 0 251 246 0 250 244 0 251 240 0 255 241 1 253 238 0 251 248 0 238 239 49 255 255 200 255 254 255 
255 249 243 255 254 246 253 255 247 248 255 250 241 255 250 235 252 246 254 251 255 255 248 255 255 250 255 253 252 255 252 253 255 252 253 255 253 253 253 255 252 251 254 244 243 255 248 248 255 250 251 255 251 251 255 253 251 248 247 245 251 255 253 249 255 251 254 255 246 255 255 223 255 255 184 244 224 93 255 237 37 254 241 2 250 242 0 250 247 0 250 244 0 251 240 2 255 240 6 254 236 2 252 246 4 241 237 54 255 255 205 255 251 255 
255 254 248 255 254 249 247 255 249 232 254 242 233 255 253 236 255 255 255 253 255 255 249 255 255 250 255 255 252 255 254 254 255 254 254 255 255 254 255 255 253 255 255 250 255 255 247 251 255 244 249 255 245 250 255 247 248 255 251 252 255 254 251 251 250 245 255 255 243 255 255 225 255 255 193 239 223 110 249 235 64 249 238 32 243 241 19 246 244 21 245 242 23 244 239 26 251 238 35 246 234 34 247 241 41 237 233 82 255 255 207 255 253 251 
255 255 253 255 255 253 252 255 253 251 255 253 248 255 255 249 255 255 255 254 255 255 253 255 255 254 255 255 254 255 255 254 255 255 255 255 255 255 255 255 254 255 255 254 255 255 253 255 255 253 255 255 253 255 255 253 253 255 254 255 255 255 253 255 255 248 255 255 237 255 255 220 248 246 189 240 238 153 234 234 112 233 233 87 230 235 73 232 235 66 232 235 66 234 236 73 235 235 85 232 233 95 233 235 110 240 242 145 251 251 197 255 255 227 
255 255 255 255 255 255 255 255 255 255 255 255 255 255 255 255 255 255 255 255 255 255 255 255 255 255 255 255 255 255 255 255 255 255 255 255 255 255 255 255 255 255 255 255 255 255 255 255 255 255 255 255 255 255 255 255 255 255 255 255 255 255 255 255 255 251 255 255 244 255 255 234 255 255 223 255 255 209 255 255 191 255 255 177 255 255 165 255 255 158 255 255 156 255 255 161 255 255 170 255 255 182 255 255 193 255 255 206 255 255 220 255 255 227 
255 255 255 255 255 255 255 255 255 255 255 255 255 255 255 255 255 255 255 255 255 255 255 255 255 255 255 255 255 255 255 255 255 255 255 255 255 255 255 255 255 255 255 255 255 255 255 255 255 255 255 255 255 255 255 255 255 255 255 255 255 255 255 255 255 255 253 250 255 255 251 255 255 253 250 255 255 243 255 255 232 255 255 221 255 255 213 255 255 208 255 255 209 255 255 211 255 255 216 255 255 223 255 255 230 254 253 235 254 254 244 255 255 250 
255 255 255 255 255 255 255 255 255 255 255 255 255 255 255 255 255 255 255 255 255 255 255 255 255 255 255 255 255 255 255 255 255 255 255 255 255 255 255 255 255 255 255 255 255 255 255 255 255 255 255 255 255 255 255 255 255 255 255 255 255 255 255 255 254 255 255 251 255 255 250 255 255 252 255 255 252 255 255 254 251 255 250 241 255 250 234 255 248 229 255 249 228 255 252 233 255 255 239 255 254 244 255 255 248 255 254 253 255 254 255 255 253 255 
