P3
38 36
255
255 255 255 252 252 252 250 250 250 255 255 255 255 255 255 255 255 255 248 248 248 248 248 248 255 255 255 248 248 248 255 255 255 250 250 250 255 255 255 250 250 250 250 250 250 254 254 254 253 253 253 250 250 250 250 250 250 250 250 250 242 242 242 247 247 247 248 248 248 248 248 248 252 252 252 252 252 252 252 252 252 252 252 252 252 252 252 252 252 252 254 254 254 253 253 253 249 249 249 250 250 250 248 248 248 253 253 253 254 254 254 253 253 253 
242 242 242 255 255 255 240 240 240 255 255 255 255 255 255 250 250 250 255 255 255 255 255 255 255 255 255 255 255 255 255 255 255 248 248 248 233 233 233 255 255 255 250 250 250 238 238 238 253 253 253 253 253 253 253 253 253 252 252 252 245 245 245 248 248 248 251 251 251 252 252 252 253 253 253 253 253 253 252 252 252 252 252 252 252 252 252 253 253 253 254 254 254 253 253 253 251 251 251 252 252 252 251 251 251 255 255 255 254 254 254 254 254 254 
255 255 255 237 237 237 3 3 3 0 0 0 0 0 0 0 0 0 12 12 12 0 0 0 0 0 0 0 0 0 0 0 0 3 3 3 20 20 20 235 235 235 252 252 252 254 254 254 252 252 252 251 251 251 254 254 254 253 253 253 253 253 253 253 253 253 253 253 253 253 253 253 251 251 251 250 250 250 250 250 250 250 250 250 251 251 251 252 252 252 251 251 251 251 251 251 252 252 252 252 252 252 254 254 254 252 252 252 253 253 253 253 253 253 
255 255 255 255 255 255 0 0 0 5 5 5 10 10 10 3 3 3 7 7 7 0 0 0 0 0 0 0 0 0 0 0 0 0 0 0 0 0 0 255 255 255 255 255 255 254 254 254 252 252 252 252 252 252 251 251 251 248 248 248 247 247 247 245 245 245 246 246 246 244 244 244 247 247 247 246 246 246 246 246 246 247 247 247 250 250 250 252 252 252 250 250 250 248 248 248 243 243 243 242 242 242 252 252 252 245 245 245 249 249 249 250 250 250 
253 253 253 255 255 255 7 7 7 0 0 0 0 0 0 0 0 0 0 0 0 17 17 17 5 5 5 0 0 0 15 15 15 3 3 3 1 1 1 255 255 255 255 255 255 243 243 243 249 249 249 252 252 252 253 253 253 249 249 249 239 239 239 235 235 235 237 237 237 238 238 238 237 237 237 237 237 237 236 236 236 237 237 237 243 243 243 244 244 244 241 241 241 238 238 238 235 235 235 237 237 237 249 249 249 252 252 252 252 252 252 247 247 247 
255 255 255 255 255 255 1 1 1 0 0 0 12 12 12 15 15 15 0 0 0 0 0 0 3 3 3 0 0 0 0 0 0 0 0 0 0 0 0 248 248 248 255 255 255 254 254 254 253 253 253 254 254 254 254 254 254 238 238 238 154 154 154 132 132 132 131 131 131 136 136 136 135 135 135 135 135 135 135 135 135 134 134 134 134 134 134 134 134 134 135 135 135 134 134 134 133 133 133 142 142 142 228 228 228 238 238 238 250 250 250 249 249 249 
253 253 253 255 255 255 3 3 3 0 0 0 0 0 0 0 0 0 0 0 0 3 3 3 0 0 0 3 3 3 0 0 0 6 6 6 9 9 9 252 252 252 253 253 253 251 251 251 247 247 247 251 251 251 252 252 252 243 243 243 135 135 135 130 130 130 132 132 132 139 139 139 137 137 137 136 136 136 136 136 136 136 136 136 136 136 136 136 136 136 137 137 137 136 136 136 135 135 135 147 147 147 246 246 246 250 250 250 250 250 250 246 246 246 
253 253 253 255 255 255 0 0 0 0 0 0 12 12 12 0 0 0 10 10 10 0 0 0 0 0 0 7 7 7 0 0 0 3 3 3 0 0 0 255 255 255 255 255 255 253 253 253 252 252 252 251 251 251 247 247 247 244 244 244 135 135 135 145 145 145 140 140 140 133 133 133 134 134 134 134 134 134 138 138 138 137 137 137 134 134 134 134 134 134 135 135 135 137 137 137 129 129 129 138 138 138 245 245 245 250 250 250 249 249 249 242 242 242 
255 255 255 255 255 255 0 0 0 3 3 3 1 1 1 0 0 0 0 0 0 0 0 0 0 0 0 1 1 1 0 0 0 9 9 9 0 0 0 255 255 255 255 255 255 253 253 253 252 252 252 251 251 251 247 247 247 244 244 244 135 135 135 145 145 145 140 140 140 133 133 133 134 134 134 134 134 134 138 138 138 137 137 137 134 134 134 134 134 134 135 135 135 137 137 137 129 129 129 138 138 138 245 245 245 250 250 250 249 249 249 242 242 242 
253 253 253 255 255 255 0 0 0 3 3 3 0 0 0 0 0 0 7 7 7 7 7 7 3 3 3 0 0 0 7 7 7 6 6 6 9 9 9 243 243 243 255 255 255 254 254 254 247 247 247 251 251 251 252 252 252 243 243 243 135 135 135 130 130 130 132 132 132 139 139 139 137 137 137 136 136 136 136 136 136 136 136 136 136 136 136 136 136 136 137 137 137 136 136 136 135 135 135 147 147 147 246 246 246 250 250 250 250 250 250 246 246 246 
250 250 250 255 255 255 0 0 0 0 0 0 0 0 0 0 0 0 0 0 0 0 0 0 0 0 0 0 0 0 1 1 1 0 0 0 0 0 0 250 250 250 255 255 255 254 254 254 253 253 253 254 254 254 254 254 254 238 238 238 154 154 154 132 132 132 131 131 131 136 136 136 135 135 135 135 135 135 135 135 135 134 134 134 134 134 134 134 134 134 135 135 135 134 134 134 133 133 133 142 142 142 228 228 228 238 238 238 250 250 250 249 249 249 
255 255 255 255 255 255 0 0 0 5 5 5 5 5 5 9 9 9 0 0 0 0 0 0 1 1 1 10 10 10 0 0 0 0 0 0 0 0 0 255 255 255 252 252 252 243 243 243 249 249 249 252 252 252 253 253 253 249 249 249 239 239 239 235 235 235 237 237 237 238 238 238 237 237 237 237 237 237 236 236 236 237 237 237 243 243 243 244 244 244 241 241 241 238 238 238 235 235 235 237 237 237 249 249 249 252 252 252 252 252 252 247 247 247 
250 250 250 235 235 235 10 10 10 0 0 0 0 0 0 0 0 0 1 1 1 14 14 14 0 0 0 0 0 0 0 0 0 0 0 0 15 15 15 240 240 240 255 255 255 254 254 254 252 252 252 252 252 252 251 251 251 248 248 248 247 247 247 245 245 245 246 246 246 244 244 244 247 247 247 246 246 246 246 246 246 247 247 247 250 250 250 252 252 252 250 250 250 248 248 248 243 243 243 242 242 242 252 252 252 245 245 245 249 249 249 250 250 250 
248 248 248 255 255 255 229 229 229 255 255 255 255 255 255 255 255 255 246 246 246 246 246 246 255 255 255 245 245 245 255 255 255 255 255 255 247 247 247 255 255 255 246 246 246 235 235 235 252 252 252 251 251 251 254 254 254 253 253 253 253 253 253 253 253 253 253 253 253 253 253 253 251 251 251 250 250 250 250 250 250 250 250 250 251 251 251 252 252 252 251 251 251 251 251 251 252 252 252 252 252 252 254 254 254 252 252 252 253 253 253 253 253 253 
247 247 247 255 255 255 253 253 253 255 255 255 250 250 250 250 250 250 250 250 250 255 255 255 255 255 255 246 246 246 255 255 255 246 246 246 255 255 255 234 234 234 255 255 255 254 254 254 253 253 253 253 253 253 253 253 253 252 252 252 245 245 245 248 248 248 251 251 251 252 252 252 253 253 253 253 253 253 252 252 252 252 252 252 252 252 252 253 253 253 254 254 254 253 253 253 251 251 251 252 252 252 251 251 251 255 255 255 254 254 254 254 254 254 
254 254 254 242 242 242 254 254 254 251 251 251 254 254 254 255 255 255 253 253 253 253 253 253 250 250 250 254 254 254 251 251 251 255 255 255 254 254 254 250 250 250 254 254 254 236 236 236 254 254 254 250 250 250 250 250 250 250 250 250 243 243 243 248 248 248 249 249 249 249 249 249 253 253 253 253 253 253 252 252 252 251 251 251 252 252 252 252 252 252 254 254 254 253 253 253 250 250 250 252 252 252 247 247 247 252 252 252 254 254 254 254 254 254 
249 249 249 254 254 254 251 251 251 252 252 252 253 253 253 249 249 249 251 251 251 249 249 249 251 251 251 252 252 252 254 254 254 253 253 253 252 252 252 253 253 253 252 252 252 253 253 253 252 252 252 246 246 246 249 249 249 245 245 245 240 240 240 249 249 249 251 251 251 253 253 253 253 253 253 251 251 251 250 250 250 250 250 250 251 251 251 253 253 253 254 254 254 253 253 253 254 254 254 243 243 243 254 254 254 243 243 243 253 253 253 250 250 250 
252 252 252 254 254 254 252 252 252 252 252 252 252 252 252 250 250 250 251 251 251 249 249 249 245 245 245 249 249 249 250 250 250 250 250 250 251 251 251 253 253 253 252 252 252 252 252 252 253 253 253 241 241 241 250 250 250 250 250 250 251 251 251 252 252 252 245 245 245 249 249 249 252 252 252 251 251 251 251 251 251 251 251 251 252 252 252 254 254 254 253 253 253 253 253 253 252 252 252 249 249 249 253 253 253 252 252 252 254 254 254 253 253 253 
245 245 245 254 254 254 245 245 245 248 248 248 250 250 250 249 249 249 254 254 254 254 254 254 252 252 252 251 251 251 250 250 250 251 251 251 251 251 251 253 253 253 253 253 253 251 251 251 252 252 252 252 252 252 252 252 252 252 252 252 253 253 253 253 253 253 248 248 248 252 252 252 251 251 251 251 251 251 251 251 251 251 251 251 251 251 251 251 251 251 250 250 250 251 251 251 253 253 253 249 249 249 252 252 252 249 249 249 251 251 251 255 255 255 
254 254 254 252 252 252 247 247 247 246 246 246 248 248 248 249 249 249 248 248 248 249 249 249 249 249 249 251 251 251 247 247 247 243 243 243 245 245 245 251 251 251 253 253 253 251 251 251 249 249 249 250 250 250 250 250 250 245 245 245 247 247 247 250 250 250 251 251 251 252 252 252 254 254 254 254 254 254 253 253 253 253 253 253 253 253 253 252 252 252 252 252 252 253 253 253 254 254 254 253 253 253 254 254 254 254 254 254 254 254 254 245 245 245 
249 249 249 248 248 248 221 221 221 216 216 216 219 219 219 211 211 211 214 214 214 213 213 213 219 219 219 222 222 222 221 221 221 219 219 219 229 229 229 244 244 244 252 252 252 253 253 253 252 252 252 251 251 251 249 249 249 248 248 248 250 250 250 250 250 250 250 250 250 241 241 241 253 253 253 251 251 251 251 251 251 251 251 251 252 252 252 254 254 254 254 254 254 254 254 254 245 245 245 240 240 240 252 252 252 248 248 248 254 254 254 238 238 238 
254 254 254 249 249 249 224 224 224 216 216 216 220 220 220 216 216 216 220 220 220 217 217 217 212 212 212 217 217 217 214 214 214 209 209 209 222 222 222 242 242 242 252 252 252 254 254 254 254 254 254 248 248 248 250 250 250 251 251 251 250 250 250 242 242 242 253 253 253 251 251 251 247 247 247 245 245 245 244 244 244 244 244 244 247 247 247 249 249 249 251 251 251 250 250 250 245 245 245 245 245 245 248 248 248 246 246 246 254 254 254 247 247 247 
251 251 251 247 247 247 215 215 215 211 211 211 218 218 218 215 215 215 220 220 220 218 218 218 221 221 221 223 223 223 219 219 219 214 214 214 225 225 225 244 244 244 253 253 253 251 251 251 250 250 250 249 249 249 253 253 253 253 253 253 240 240 240 242 242 242 248 248 248 226 226 226 238 238 238 234 234 234 233 233 233 233 233 233 236 236 236 239 239 239 242 242 242 241 241 241 232 232 232 236 236 236 227 227 227 247 247 247 252 252 252 254 254 254 
253 253 253 249 249 249 219 219 219 214 214 214 220 220 220 215 215 215 217 217 217 214 214 214 213 213 213 217 217 217 214 214 214 211 211 211 224 224 224 244 244 244 252 252 252 249 249 249 252 252 252 252 252 252 251 251 251 253 253 253 248 248 248 248 248 248 232 232 232 103 103 103 89 89 89 90 90 90 89 89 89 90 90 90 90 90 90 89 89 89 89 89 89 90 90 90 89 89 89 100 100 100 103 103 103 235 235 235 248 248 248 253 253 253 
252 252 252 247 247 247 216 216 216 220 220 220 215 215 215 216 216 216 214 214 214 217 217 217 217 217 217 215 215 215 215 215 215 219 219 219 214 214 214 243 243 243 251 251 251 252 252 252 252 252 252 250 250 250 252 252 252 252 252 252 253 253 253 249 249 249 242 242 242 85 85 85 89 89 89 90 90 90 90 90 90 90 90 90 90 90 90 89 89 89 90 90 90 89 89 89 91 91 91 90 90 90 92 92 92 239 239 239 248 248 248 250 250 250 
252 252 252 247 247 247 217 217 217 220 220 220 215 215 215 217 217 217 214 214 214 216 216 216 218 218 218 215 215 215 216 216 216 219 219 219 215 215 215 244 244 244 250 250 250 252 252 252 251 251 251 252 252 252 252 252 252 249 249 249 249 249 249 243 243 243 239 239 239 99 99 99 93 93 93 93 93 93 92 92 92 92 92 92 92 92 92 93 93 93 93 93 93 93 93 93 98 98 98 92 92 92 81 81 81 238 238 238 243 243 243 251 251 251 
253 253 253 249 249 249 217 217 217 220 220 220 215 215 215 217 217 217 216 216 216 217 217 217 218 218 218 215 215 215 217 217 217 220 220 220 214 214 214 245 245 245 252 252 252 252 252 252 253 253 253 253 253 253 253 253 253 245 245 245 248 248 248 243 243 243 230 230 230 79 79 79 89 89 89 89 89 89 89 89 89 89 89 89 89 89 89 89 89 89 88 88 88 89 89 89 88 88 88 89 89 89 82 82 82 238 238 238 246 246 246 251 251 251 
253 253 253 249 249 249 217 217 217 220 220 220 215 215 215 218 218 218 216 216 216 218 218 218 218 218 218 215 215 215 217 217 217 219 219 219 214 214 214 246 246 246 252 252 252 252 252 252 253 253 253 254 254 254 252 252 252 249 249 249 249 249 249 246 246 246 235 235 235 118 118 118 92 92 92 92 92 92 92 92 92 91 91 91 92 92 92 91 91 91 92 92 92 91 91 91 89 89 89 100 100 100 105 105 105 233 233 233 243 243 243 251 251 251 
254 254 254 248 248 248 216 216 216 220 220 220 215 215 215 218 218 218 215 215 215 217 217 217 219 219 219 216 216 216 218 218 218 219 219 219 214 214 214 245 245 245 251 251 251 251 251 251 249 249 249 249 249 249 249 249 249 250 250 250 249 249 249 245 245 245 252 252 252 227 227 227 247 247 247 245 245 245 244 244 244 243 243 243 243 243 243 244 244 244 244 244 244 243 243 243 239 239 239 237 237 237 229 229 229 246 246 246 249 249 249 246 246 246 
254 254 254 248 248 248 217 217 217 220 220 220 215 215 215 217 217 217 215 215 215 217 217 217 219 219 219 216 216 216 218 218 218 219 219 219 215 215 215 246 246 246 251 251 251 251 251 251 249 249 249 248 248 248 249 249 249 250 250 250 251 251 251 244 244 244 252 252 252 252 252 252 252 252 252 252 252 252 252 252 252 252 252 252 253 253 253 253 253 253 253 253 253 253 253 253 251 251 251 249 249 249 250 250 250 246 246 246 251 251 251 244 244 244 
252 252 252 249 249 249 217 217 217 220 220 220 214 214 214 217 217 217 216 216 216 217 217 217 219 219 219 216 216 216 217 217 217 219 219 219 215 215 215 246 246 246 251 251 251 253 253 253 252 252 252 253 253 253 247 247 247 253 253 253 252 252 252 251 251 251 250 250 250 246 246 246 252 252 252 253 253 253 252 252 252 252 252 252 252 252 252 252 252 252 250 250 250 252 252 252 246 246 246 250 250 250 252 252 252 253 253 253 253 253 253 250 250 250 
253 253 253 249 249 249 216 216 216 219 219 219 214 214 214 218 218 218 216 216 216 217 217 217 219 219 219 216 216 216 217 217 217 219 219 219 214 214 214 247 247 247 251 251 251 253 253 253 249 249 249 253 253 253 252 252 252 249 249 249 248 248 248 247 247 247 249 249 249 252 252 252 253 253 253 254 254 254 254 254 254 254 254 254 253 253 253 252 252 252 251 251 251 253 253 253 249 249 249 248 248 248 246 246 246 251 251 251 253 253 253 253 253 253 
251 251 251 244 244 244 230 230 230 220 220 220 216 216 216 217 217 217 216 216 216 214 214 214 214 214 214 215 215 215 216 216 216 220 220 220 228 228 228 240 240 240 251 251 251 252 252 252 254 254 254 254 254 254 254 254 254 253 253 253 253 253 253 253 253 253 253 253 253 254 254 254 254 254 254 255 255 255 255 255 255 254 254 254 254 254 254 254 254 254 253 253 253 254 254 254 253 253 253 252 252 252 253 253 253 253 253 253 254 254 254 254 254 254 
251 251 251 251 251 251 249 249 249 247 247 247 246 246 246 245 245 245 244 244 244 243 243 243 243 243 243 244 244 244 246 246 246 247 247 247 249 249 249 251 251 251 252 252 252 253 253 253 254 254 254 255 255 255 255 255 255 255 255 255 255 255 255 255 255 255 255 255 255 255 255 255 255 255 255 255 255 255 255 255 255 255 255 255 255 255 255 255 255 255 255 255 255 255 255 255 255 255 255 255 255 255 255 255 255 255 255 255 255 255 255 255 255 255 
254 254 254 252 252 252 251 251 251 252 252 252 251 251 251 250 250 250 249 249 249 249 249 249 249 249 249 250 250 250 251 251 251 252 252 252 253 253 253 253 253 253 252 252 252 251 251 251 255 255 255 255 255 255 255 255 255 255 255 255 255 255 255 255 255 255 255 255 255 255 255 255 255 255 255 255 255 255 255 255 255 255 255 255 255 255 255 255 255 255 255 255 255 255 255 255 255 255 255 255 255 255 255 255 255 255 255 255 255 255 255 255 255 255 
253 253 253 254 254 254 254 254 254 254 254 254 253 253 253 253 253 253 250 250 250 248 248 248 247 247 247 249 249 249 250 250 250 253 253 253 253 253 253 253 253 253 252 252 252 252 252 252 254 254 254 255 255 255 255 255 255 255 255 255 255 255 255 255 255 255 255 255 255 255 255 255 255 255 255 255 255 255 255 255 255 255 255 255 255 255 255 255 255 255 255 255 255 255 255 255 255 255 255 255 255 255 255 255 255 255 255 255 255 255 255 255 255 255 
